<svg width="50" height="50" viewBox="0 0 50 50" fill="none" xmlns="http://www.w3.org/2000/svg">
<rect width="50" height="50" rx="12" fill="#EC4899" fill-opacity="0.07"/>
<path d="M32.6224 22.499L34.2656 22.499V33.3441H15.7344V22.499H17.9253M32.6224 22.499C32.6224 21.4722 31.7641 20.6398 30.7054 20.6398M32.6224 22.499C32.6224 23.5257 31.7641 24.3581 30.7054 24.3581M17.9253 22.499C17.9253 23.982 19.1649 25.1841 20.6941 25.1841H25.7915C26.6685 26.5443 28.2847 27.4493 30.0607 27.4493V17.5486C28.2847 17.5486 26.6685 18.4536 25.7915 19.8138H20.6941C19.1649 19.8138 17.9253 21.016 17.9253 22.499ZM21.4968 19.8257V25.0858M25.7788 19.8949V25.0858M23.3367 25.1841L23.9201 26.8156C24.2488 27.7611 23.5236 28.7404 22.4946 28.7404H21.7187L20.4792 25.1841M17.7884 30.6881H19.1577M24.9544 30.6881H32.166M15.7801 15.1951L16.784 16.8772M34.2199 15.1951L33.216 16.8772M25 14V15.8592M33.2614 36H16.7386C15.2261 36 14 34.8109 14 33.344H36C36 34.8109 34.7739 36 33.2614 36Z" stroke="#EC4899" stroke-width="1.5" stroke-linecap="round" stroke-linejoin="round"/>
</svg>
