<svg width="55" height="55" viewBox="0 0 55 55" fill="none" xmlns="http://www.w3.org/2000/svg">
<path d="M0 14C0 6.26801 6.26801 0 14 0H41C48.732 0 55 6.26801 55 14V41C55 48.732 48.732 55 41 55H14C6.26801 55 0 48.732 0 41V14Z" fill="#EC4899" fill-opacity="0.07"/>
<path d="M30.1024 31.4167L34.8702 32.2928C36.2178 32.5396 37.2438 33.5059 37.5513 34.8509L38.5 39H16.5L17.447 34.8517C17.7542 33.5063 18.7802 32.5396 20.1281 32.2925L24.8976 31.4167M32.799 27.8174C32.8858 27.4307 32.9316 27.0289 32.9316 26.6168V24.64C32.9316 21.6296 30.4874 19.1665 27.5 19.1665C24.5127 19.1665 22.0685 21.6296 22.0685 24.64V26.6168C22.0685 29.6272 24.5127 32.0903 27.5 32.0903M32.799 27.8174C32.2522 30.2554 30.0785 32.0903 27.5 32.0903M32.799 27.8174H28.6146M32.799 27.8174H32.9274M27.5 32.0903L23.7688 34.935V31.6253M27.5 32.0903L31.2313 34.935V31.6264M22.0782 23.0145H20.576C19.7498 23.0145 19.0738 23.6957 19.0738 24.5283V26.3202C19.0738 27.1528 19.7498 27.834 20.576 27.834H22.0782M29.8745 19.7207V20.296C29.8745 22.4746 28.1112 24.2516 25.9493 24.2516H22.0821L22.0727 21.4692C22.0727 18.4611 24.515 16 27.5 16C30.4851 16 32.9273 18.4611 32.9273 21.4692L32.9179 24.2516H32.2902C31.0072 24.2516 29.8646 23.6257 29.1476 22.6615M32.6855 23.0145H34.4502C35.2764 23.0145 35.9524 23.6957 35.9524 24.5283V26.3202C35.9524 27.1528 35.2764 27.834 34.4502 27.834H32.948" stroke="#EC4899" stroke-width="1.5" stroke-linecap="round" stroke-linejoin="round"/>
</svg>
