<svg width="13" height="13" viewBox="0 0 13 13" fill="none" xmlns="http://www.w3.org/2000/svg">
<path d="M11.9167 9.16522V10.7902C11.9173 10.9411 11.8864 11.0904 11.8259 11.2286C11.7655 11.3668 11.6769 11.4909 11.5657 11.5929C11.4545 11.6949 11.3233 11.7725 11.1804 11.8208C11.0375 11.8692 10.8861 11.8871 10.7358 11.8735C9.06902 11.6924 7.46794 11.1229 6.06123 10.2106C4.75247 9.37899 3.64287 8.26939 2.81123 6.96063C1.89581 5.54753 1.32612 3.93867 1.14832 2.26438C1.13478 2.11459 1.15258 1.96363 1.20059 1.8211C1.24859 1.67856 1.32575 1.54759 1.42715 1.43651C1.52855 1.32543 1.65196 1.23668 1.78954 1.17591C1.92711 1.11515 2.07584 1.08369 2.22623 1.08355H3.85123C4.11411 1.08096 4.36895 1.17405 4.56827 1.34546C4.76759 1.51687 4.89778 1.75492 4.93457 2.01522C5.00315 2.53525 5.13035 3.04586 5.31373 3.5373C5.38661 3.73117 5.40238 3.94188 5.35918 4.14444C5.31598 4.34701 5.21562 4.53294 5.06998 4.68022L4.38207 5.36813C5.15316 6.72422 6.27598 7.84704 7.63207 8.61813L8.31998 7.93022C8.46726 7.78458 8.65319 7.68422 8.85576 7.64102C9.05832 7.59782 9.26903 7.61359 9.4629 7.68647C9.95434 7.86985 10.4649 7.99705 10.985 8.06563C11.2481 8.10275 11.4884 8.23529 11.6602 8.43803C11.832 8.64077 11.9232 8.89957 11.9167 9.16522Z" stroke="#FF7B00" stroke-width="1.08333" stroke-linecap="round" stroke-linejoin="round"/>
</svg>
