<svg width="55" height="55" viewBox="0 0 55 55" fill="none" xmlns="http://www.w3.org/2000/svg">
<path d="M0 14C0 6.26801 6.26801 0 14 0H41C48.732 0 55 6.26801 55 14V41C55 48.732 48.732 55 41 55H14C6.26801 55 0 48.732 0 41V14Z" fill="#F59E0B" fill-opacity="0.07"/>
<path d="M38.1221 31.8619L35.6514 29.3913C38.4853 23.4447 34.1296 16.5 27.5001 16.5C20.8821 16.5 16.5092 23.4328 19.3487 29.3913L16.878 31.8619C16.1905 32.5495 16.4828 33.7229 17.4152 34.0069L20.1595 34.8404L20.993 37.5848C21.2758 38.5134 22.4468 38.8118 23.138 38.1219L26.7447 34.5152C27.2405 34.5563 27.7427 34.5577 28.2554 34.5152L31.8622 38.1219C32.5508 38.8106 33.7237 38.5153 34.0071 37.5848L34.8407 34.8404L37.585 34.0069C38.5188 33.7225 38.8085 32.5483 38.1221 31.8619ZM22.2267 37.2101L21.3927 34.4658C21.3314 34.263 21.221 34.0785 21.0712 33.9286C20.9214 33.7788 20.737 33.6683 20.5342 33.6069L17.7899 32.7733L20.0113 30.5519C21.2179 32.3428 23.0491 33.6795 25.1902 34.2467L22.2267 37.2101ZM20.9428 29.6203C17.7044 24.4632 21.4721 17.789 27.5001 17.789C33.5767 17.789 37.2666 24.5095 34.0573 29.6202C31.0187 34.4663 23.981 34.4657 20.9428 29.6203ZM34.466 33.6068C34.2632 33.6683 34.0787 33.7788 33.9289 33.9287C33.7791 34.0785 33.6685 34.263 33.6071 34.4657L32.7735 37.2101L29.8101 34.2466C31.9511 33.6794 33.7824 32.3427 34.989 30.5518L37.2104 32.7732L34.466 33.6068Z" fill="#F59E0B"/>
<path d="M27.5001 19.0781C23.1868 19.0781 20.0686 23.2648 21.3351 27.4049C22.4141 30.9406 26.2417 32.8193 29.6656 31.5942C32.1594 30.7017 33.9452 28.3159 33.9452 25.5233C33.9452 21.9694 31.0539 19.0781 27.5001 19.0781ZM24.024 29.3277C20.5436 26.151 22.8332 20.3671 27.5001 20.3671C30.6762 20.3671 33.0939 23.2251 32.5922 26.3319C31.9609 30.3591 27.0592 32.1051 24.024 29.3277Z" fill="#F59E0B"/>
<path d="M29.6896 23.8887L26.8486 25.9975L25.8645 24.9489C25.6209 24.6892 25.213 24.6763 24.9535 24.9199C24.6939 25.1635 24.681 25.5714 24.9246 25.831L26.3017 27.2983C26.5258 27.5372 26.8932 27.5697 27.1558 27.3748L30.4578 24.9238C30.7437 24.7117 30.8034 24.3079 30.5912 24.0221C30.3791 23.7363 29.9754 23.6766 29.6896 23.8887Z" fill="#F59E0B"/>
</svg>
