<svg width="50" height="50" viewBox="0 0 50 50" fill="none" xmlns="http://www.w3.org/2000/svg">
<rect width="50" height="50" rx="12" fill="#FF7B00" fill-opacity="0.07"/>
<path d="M27.1877 27.7754L24.4633 30.4997L22.8123 28.8488M24.9999 20.2085C26.7143 20.2085 28.1042 18.8187 28.1042 17.1043C28.1042 15.3898 26.7143 14.0001 24.9999 14.0001C23.2855 14.0001 21.8958 15.3898 21.8958 17.1043C21.8958 18.8187 23.2855 20.2085 24.9999 20.2085ZM24.9999 20.2085C22.0249 20.2085 19.6132 21.9563 19.6132 24.9314V24.9635H30.3868V24.9314C30.3868 21.9563 27.9749 20.2085 24.9999 20.2085ZM14.0007 33.2614H35.9993V36H14.0007V33.2614ZM16.7397 24.9635H33.2603V33.2614H16.7397V24.9635Z" stroke="#FF7B00" stroke-width="1.5" stroke-linecap="round" stroke-linejoin="round"/>
</svg>
