<svg width="50" height="50" viewBox="0 0 50 50" fill="none" xmlns="http://www.w3.org/2000/svg">
<rect width="50" height="50" rx="12" fill="#8B5CF6" fill-opacity="0.07"/>
<path d="M19.5 15.5V18.2143M18.125 18.2143H20.875M25 15.5V18.2143M23.625 18.2143H26.375M30.5 15.5V18.2143M29.125 18.2143H31.875M20.1875 23.6429C20.9469 23.6429 21.5625 23.0352 21.5625 22.2857C21.5625 21.5362 20.9469 20.9286 20.1875 20.9286C19.4281 20.9286 18.8125 21.5362 18.8125 22.2857C18.8125 23.0352 19.4281 23.6429 20.1875 23.6429ZM20.1875 23.6429C19.0484 23.6429 18.125 24.5543 18.125 25.6785V26.3571H22.25V25.6785C22.25 24.5543 21.3265 23.6429 20.1875 23.6429ZM25 20.9286H31.875M25 23.6429H31.875M25 26.3571H31.875M20.875 34.5V29.0714H18.125V34.5M20.875 34.5H18.125M20.875 34.5H29.125M18.125 34.5H14M31.875 34.5V29.0714H29.125V34.5M31.875 34.5H29.125M31.875 34.5H36M14 15.5H36V29.0714H14V15.5Z" stroke="#8B5CF6" stroke-width="1.5" stroke-linecap="round" stroke-linejoin="round"/>
</svg>
