<svg width="14" height="14" viewBox="0 0 14 14" fill="none" xmlns="http://www.w3.org/2000/svg">
<path d="M1.45834 4.08333C1.05083 6.00643 1.05083 7.99357 1.45834 9.91667C1.51188 10.112 1.61533 10.29 1.75852 10.4331C1.90171 10.5763 2.07971 10.6798 2.275 10.7333C5.40367 11.2518 8.59633 11.2518 11.725 10.7333C11.9203 10.6798 12.0983 10.5763 12.2415 10.4331C12.3847 10.29 12.4881 10.112 12.5417 9.91667C12.9492 7.99357 12.9492 6.00643 12.5417 4.08333C12.4881 3.88804 12.3847 3.71004 12.2415 3.56685C12.0983 3.42366 11.9203 3.32021 11.725 3.26667C8.59633 2.74835 5.40368 2.74835 2.275 3.26667C2.07971 3.32021 1.90171 3.42366 1.75852 3.56685C1.61533 3.71004 1.51188 3.88804 1.45834 4.08333Z" stroke="#6A7282" stroke-width="1.16667" stroke-linecap="round" stroke-linejoin="round"/>
<path d="M5.83331 8.75L8.74998 7L5.83331 5.25V8.75Z" stroke="#6A7282" stroke-width="1.16667" stroke-linecap="round" stroke-linejoin="round"/>
</svg>
