<svg width="50" height="50" viewBox="0 0 50 50" fill="none" xmlns="http://www.w3.org/2000/svg">
<rect width="50" height="50" rx="12" fill="#22C55E" fill-opacity="0.07"/>
<path d="M35.1602 26.2526C35.612 25.7413 35.8867 25.072 35.8867 24.3398C35.8867 22.7393 34.5765 21.4371 32.9661 21.4371C31.3557 21.4371 30.0455 22.7393 30.0455 24.3398C30.0455 25.0708 30.3194 25.739 30.7698 26.2499C30.5155 26.3726 30.2721 26.5166 30.0424 26.6803C29.3709 25.8611 28.502 25.2079 27.5081 24.7933C28.2191 24.1286 28.6644 23.1862 28.6644 22.1418C28.6644 20.1337 27.0205 18.5 24.9999 18.5C22.9794 18.5 21.3355 20.1337 21.3355 22.1418C21.3355 23.1862 21.7808 24.1286 22.4918 24.7933C21.4978 25.208 20.6287 25.8613 19.9572 26.6807C19.7274 26.5171 19.4841 26.3731 19.2298 26.2504C19.6804 25.7394 19.9545 25.071 19.9545 24.3398C19.9545 22.7393 18.6443 21.4371 17.0338 21.4371C15.4234 21.4371 14.1132 22.7393 14.1132 24.3398C14.1132 25.072 14.388 25.7413 14.8397 26.2526C13.1604 27.0642 12 28.7772 12 30.7546C12 31.1663 12.3358 31.5 12.75 31.5H37.25C37.6642 31.5 38 31.1662 38 30.7546C38 28.7772 36.8396 27.0642 35.1602 26.2526ZM17.0339 22.9279C17.8172 22.9279 18.4546 23.5613 18.4546 24.3398C18.4546 25.1183 17.8172 25.7517 17.0339 25.7517C16.2505 25.7517 15.6132 25.1183 15.6132 24.3398C15.6132 23.5613 16.2505 22.9279 17.0339 22.9279ZM18.5417 30.0093H13.5801C13.9249 28.4294 15.3426 27.2425 17.0339 27.2425C17.8064 27.2425 18.5409 27.4875 19.1482 27.9401C18.83 28.5909 18.625 29.2905 18.5417 30.0093ZM25 19.9906C26.1935 19.9906 27.1644 20.9556 27.1644 22.1417C27.1644 23.3278 26.1935 24.2929 25 24.2929C23.8065 24.2929 22.8356 23.3279 22.8356 22.1417C22.8356 20.9557 23.8065 19.9906 25 19.9906ZM20.0544 30.0093C20.4173 27.6206 22.4969 25.7837 25 25.7837C27.5031 25.7837 29.5827 27.6205 29.9456 30.0093H20.0544ZM32.9661 22.9279C33.7495 22.9279 34.3868 23.5613 34.3868 24.3398C34.3868 25.1183 33.7495 25.7517 32.9661 25.7517C32.1828 25.7517 31.5454 25.1183 31.5454 24.3398C31.5454 23.5613 32.1828 22.9279 32.9661 22.9279ZM31.4582 30.0093C31.375 29.2904 31.1699 28.5907 30.8517 27.9398C31.4586 27.4872 32.1924 27.2425 32.9662 27.2425C34.6575 27.2425 36.0751 28.4295 36.4199 30.0093H31.4582Z" fill="#22C55E"/>
</svg>
