<svg width="55" height="55" viewBox="0 0 55 55" fill="none" xmlns="http://www.w3.org/2000/svg">
<path d="M0 14C0 6.26801 6.26801 0 14 0H41C48.732 0 55 6.26801 55 14V41C55 48.732 48.732 55 41 55H14C6.26801 55 0 48.732 0 41V14Z" fill="#8B5CF6" fill-opacity="0.07"/>
<path d="M24.8741 31.6252C24.8741 32.3167 24.3858 32.8941 23.7344 33.031C23.6386 33.0516 23.5391 33.0621 23.4373 33.0621C22.6436 33.0621 22 32.4185 22 31.6252M22 31.6252C22 30.8858 22.5587 30.2769 23.2766 30.1966M22 31.6252H17.2997M23.2766 30.1966C23.3296 30.1911 23.383 30.1879 23.4373 30.1879C24.231 30.1879 24.8741 30.8315 24.8741 31.6252M23.2766 30.1966C23.1904 29.3339 23.1447 28.4302 23.1447 27.5C23.1447 26.101 23.2483 24.7628 23.4368 23.5318C24.0672 19.4175 25.6487 16.5 27.5 16.5M24.8741 31.6252H37.7003M23.7344 33.031C24.4894 36.3018 25.8929 38.5 27.5 38.5M30.1259 23.5318C30.1259 22.828 30.6311 22.2424 31.2993 22.1187C31.3847 22.1027 31.4728 22.0945 31.5627 22.0945C32.3564 22.0945 33 22.738 33 23.5318M33 23.5318C33 24.2662 32.4491 24.8714 31.7384 24.9581M33 23.5318H37.762M31.7384 24.9581C31.6809 24.965 31.622 24.9686 31.5627 24.9686C30.769 24.9686 30.1259 24.3255 30.1259 23.5318M31.7384 24.9581C31.8146 25.7738 31.8553 26.625 31.8553 27.5C31.8553 28.9588 31.743 30.3513 31.5385 31.6252C30.8927 35.6564 29.328 38.5 27.5 38.5M30.1259 23.5318H17.238M31.2993 22.1187C30.5535 18.7653 29.1313 16.5 27.5 16.5M37.762 23.5318C36.1704 19.4175 32.1761 16.5 27.5 16.5M35.9896 34.4948C36.6971 33.6376 37.2768 32.6714 37.7003 31.6252C38.2161 30.3513 38.5 28.9588 38.5 27.5C38.5 26.101 38.2389 24.7628 37.762 23.5318M27.5 16.5C25.0704 16.5 22.8248 17.2878 21.0045 18.6219M21.0045 18.6219C21.0967 18.8118 21.1488 19.025 21.1488 19.25C21.1488 20.0437 20.5052 20.6873 19.7115 20.6873C19.4568 20.6873 19.2176 20.6211 19.0104 20.5052M21.0045 18.6219C20.7713 18.1427 20.2802 17.8127 19.7115 17.8127C18.9177 17.8127 18.2741 18.4563 18.2741 19.25C18.2741 19.789 18.5713 20.2592 19.0104 20.5052M19.0104 20.5052C18.2678 21.4053 17.6657 22.4249 17.238 23.5318M17.238 23.5318C16.7611 24.7628 16.5 26.101 16.5 27.5C16.5 28.9588 16.7839 30.3513 17.2997 31.6252M17.2997 31.6252C18.9314 35.6564 22.8837 38.5 27.5 38.5M27.5 38.5C29.9296 38.5 32.1752 37.7122 33.9955 36.378M33.9955 36.378C33.9004 36.1823 33.8511 35.9676 33.8512 35.75C33.8512 34.9563 34.4948 34.3127 35.2885 34.3127C35.5432 34.3127 35.7824 34.3789 35.9896 34.4948M33.9955 36.378C34.2287 36.8573 34.7198 37.1873 35.2886 37.1873C36.0823 37.1873 36.7259 36.5437 36.7259 35.75C36.7259 35.211 36.4287 34.7408 35.9896 34.4948" stroke="#8B5CF6" stroke-width="1.5" stroke-linecap="round" stroke-linejoin="round"/>
</svg>
