<svg width="50" height="50" viewBox="0 0 50 50" fill="none" xmlns="http://www.w3.org/2000/svg">
<rect width="50" height="50" rx="12" fill="#3B82F6" fill-opacity="0.07"/>
<path d="M16.936 29.7674C18.2874 29.7674 19.383 28.6932 19.383 27.368V26.4608C19.383 25.1357 18.2874 24.0614 16.936 24.0614C15.5845 24.0614 14.4889 25.1357 14.4889 26.4608V27.368C14.4889 28.6932 15.5845 29.7674 16.936 29.7674ZM16.936 29.7674L16.936 33.6029M24.1374 17.3592H28.6467M38.5 36H36.1402M36.1402 36H32.8806M36.1402 36V27.5826M32.8806 36H29.6211M32.8806 36V29.7133M29.6211 36H26.392V26.1591M29.6211 36V31.844M37.6851 24.4304L37.6722 21.5309L34.7152 21.5182M37.6722 21.5309L32.8806 26.2292L31.2721 24.6519L29.1594 26.7235M11.5 36V32.7245C11.5 31.0914 12.8502 29.7674 14.5159 29.7674H19.3561C21.0217 29.7674 22.3719 31.0913 22.3719 32.7245V36H11.5ZM21.819 14V22.454L25.112 20.714H30.965V14H21.819Z" stroke="#3B82F6" stroke-width="1.5" stroke-linecap="round" stroke-linejoin="round"/>
</svg>
