<svg width="50" height="50" viewBox="0 0 50 50" fill="none" xmlns="http://www.w3.org/2000/svg">
<rect width="50" height="50" rx="12" fill="#660000" fill-opacity="0.07"/>
<path d="M36 27.7041H14M36 27.7041V29.0791C36 29.8385 35.3844 30.4541 34.625 30.4541H15.375C14.6156 30.4541 14 29.8385 14 29.0791V27.7041M36 27.7041V15.3291C36 14.5697 35.3844 13.9541 34.625 13.9541H15.375C14.6156 13.9541 14 14.5697 14 15.3291V27.7041M21.4875 19.3041L23.0125 22.3541M18.7375 22.3541L20.2625 19.3041M22.25 23.5791H19.5M22.25 23.5791C22.25 24.3385 22.8656 24.9541 23.625 24.9541C24.3844 24.9541 25 24.3385 25 23.5791C25 22.8197 24.3844 22.2041 23.625 22.2041C22.8656 22.2041 22.25 22.8197 22.25 23.5791ZM19.5 23.5791C19.5 24.3385 18.8844 24.9541 18.125 24.9541C17.3656 24.9541 16.75 24.3385 16.75 23.5791C16.75 22.8197 17.3656 22.2041 18.125 22.2041C18.8844 22.2041 19.5 22.8197 19.5 23.5791ZM27.75 13.9541V27.7041M30.5 16.7041H33.25M30.5 19.4541H33.25M30.5 22.2041H32.3333M30.5 24.9541H33.25M28.2083 33.2958H21.7917C21.0323 33.2958 20.4167 33.9114 20.4167 34.6708V36.0458H29.5833V34.6708C29.5833 33.9114 28.9677 33.2958 28.2083 33.2958ZM27.75 30.4541H22.25V33.2958H27.75V30.4541ZM22.25 18.0791C22.25 18.8385 21.6344 19.4541 20.875 19.4541C20.1156 19.4541 19.5 18.8385 19.5 18.0791C19.5 17.3197 20.1156 16.7041 20.875 16.7041C21.6344 16.7041 22.25 17.3197 22.25 18.0791Z" stroke="#660000" stroke-width="1.5" stroke-linecap="round" stroke-linejoin="round"/>
</svg>
