<svg width="50" height="50" viewBox="0 0 50 50" fill="none" xmlns="http://www.w3.org/2000/svg">
<rect width="50" height="50" rx="12" fill="#10B981" fill-opacity="0.07"/>
<path d="M15 14C14.4477 14 14 14.4477 14 15V31.1177C14 31.6699 14.4477 32.1176 15 32.1176H22.4118V32.7647C22.4118 33.8351 21.541 34.7059 20.4706 34.7059H19.8235C19.4662 34.7059 19.1765 34.9956 19.1765 35.3529C19.1765 35.7103 19.4662 36 19.8235 36H30.1765C30.5338 36 30.8235 35.7103 30.8235 35.3529C30.8235 34.9956 30.5338 34.7059 30.1765 34.7059H29.5294C28.459 34.7059 27.5882 33.8351 27.5882 32.7647V32.1176H35C35.5523 32.1176 36 31.6699 36 31.1176V15C36 14.4477 35.5523 14 35 14H15ZM23.0573 34.7059C23.4643 34.1648 23.7059 33.4924 23.7059 32.7647V32.1176H26.2941V32.7647C26.2941 33.4924 26.5357 34.1648 26.9427 34.7059H23.0573ZM34.7059 30.8235H15.2941V29.5294H34.7059V30.8235ZM34.7059 28.2353H15.2941V15.2941H34.7059V28.2353Z" fill="#10B981"/>
<path d="M20.4706 24.3529C22.6113 24.3529 24.3529 22.6113 24.3529 20.4706C24.3529 18.3299 22.6113 16.5882 20.4706 16.5882C18.3299 16.5882 16.5882 18.3299 16.5882 20.4706C16.5882 22.6113 18.3299 24.3529 20.4706 24.3529ZM21.1176 17.9642C22.0258 18.1989 22.7423 18.9154 22.9769 19.8235H21.1176V17.9642ZM19.8235 17.9642V21.1176H22.9769C22.6889 22.2327 21.6744 23.0588 20.4706 23.0588C19.0434 23.0588 17.8823 21.8977 17.8823 20.4706C17.8823 19.2668 18.7084 18.2523 19.8235 17.9642ZM24.3529 26.9412H33.4118V25.6471H32.1176V21.7647H30.8235V25.6471H29.5294V23.7059H28.2353V25.6471H26.9412V22.4118H25.6471V25.6471H24.3529V26.9412ZM16.5882 25.6471H23.0588V26.9412H16.5882V25.6471ZM25.6471 16.5882H33.4118V17.8824H25.6471V16.5882ZM25.6471 19.1765H33.4118V20.4706H25.6471V19.1765Z" fill="#10B981"/>
</svg>
