<svg width="14" height="14" viewBox="0 0 14 14" fill="none" xmlns="http://www.w3.org/2000/svg">
<path d="M9.33331 4.6665C10.2616 4.6665 11.1518 5.03525 11.8082 5.69163C12.4646 6.34801 12.8333 7.23825 12.8333 8.1665V12.2498H10.5V8.1665C10.5 7.85708 10.3771 7.56034 10.1583 7.34155C9.93948 7.12275 9.64273 6.99984 9.33331 6.99984C9.02389 6.99984 8.72715 7.12275 8.50836 7.34155C8.28956 7.56034 8.16665 7.85708 8.16665 8.1665V12.2498H5.83331V8.1665C5.83331 7.23825 6.20206 6.34801 6.85844 5.69163C7.51482 5.03525 8.40506 4.6665 9.33331 4.6665Z" stroke="#6A7282" stroke-width="1.16667" stroke-linecap="round" stroke-linejoin="round"/>
<path d="M3.50002 5.25H1.16669V12.25H3.50002V5.25Z" stroke="#6A7282" stroke-width="1.16667" stroke-linecap="round" stroke-linejoin="round"/>
<path d="M2.33335 3.49984C2.97769 3.49984 3.50002 2.9775 3.50002 2.33317C3.50002 1.68884 2.97769 1.1665 2.33335 1.1665C1.68902 1.1665 1.16669 1.68884 1.16669 2.33317C1.16669 2.9775 1.68902 3.49984 2.33335 3.49984Z" stroke="#6A7282" stroke-width="1.16667" stroke-linecap="round" stroke-linejoin="round"/>
</svg>
