<svg width="13" height="13" viewBox="0 0 13 13" fill="none" xmlns="http://www.w3.org/2000/svg">
<path d="M6.82556 11.808C7.83306 10.938 10.8334 8.12137 10.8334 5.41683C10.8334 4.26756 10.3768 3.16536 9.56415 2.3527C8.75149 1.54004 7.64929 1.0835 6.50002 1.0835C5.35075 1.0835 4.24855 1.54004 3.43589 2.3527C2.62323 3.16536 2.16669 4.26756 2.16669 5.41683C2.16669 8.12137 5.16698 10.938 6.17448 11.808C6.26834 11.8785 6.38259 11.9167 6.50002 11.9167C6.61745 11.9167 6.7317 11.8785 6.82556 11.808Z" stroke="#FF7B00" stroke-width="1.08333" stroke-linecap="round" stroke-linejoin="round"/>
<path d="M6.5 7.0415C7.39746 7.0415 8.125 6.31397 8.125 5.4165C8.125 4.51904 7.39746 3.7915 6.5 3.7915C5.60254 3.7915 4.875 4.51904 4.875 5.4165C4.875 6.31397 5.60254 7.0415 6.5 7.0415Z" stroke="#FF7B00" stroke-width="1.08333" stroke-linecap="round" stroke-linejoin="round"/>
</svg>
