<svg width="50" height="50" viewBox="0 0 50 50" fill="none" xmlns="http://www.w3.org/2000/svg">
<rect width="50" height="50" rx="12" fill="#06B6D4" fill-opacity="0.07"/>
<path d="M20.8921 22.2614H34.5851M22.2614 27.7842V22.2614M22.2614 27.7842C21.5052 27.7842 20.8921 28.3973 20.8921 29.1535C20.8921 29.9097 21.5052 30.5228 22.2614 30.5228C23.0176 30.5228 23.6307 29.9097 23.6307 29.1535C23.6307 28.3973 23.0176 27.7842 22.2614 27.7842ZM33.2158 22.2614V27.7842M33.2158 22.2614L27.7386 22.2614V20.8465C27.7386 19.334 28.9647 18.1079 30.4772 18.1079C31.9897 18.1079 33.2158 19.334 33.2158 20.8465L33.2158 22.2614ZM33.2158 27.7842C32.4596 27.7842 31.8465 28.3973 31.8465 29.1535C31.8465 29.9097 32.4595 30.5228 33.2158 30.5228C33.972 30.5228 34.5851 29.9097 34.5851 29.1535C34.5851 28.3973 33.972 27.7842 33.2158 27.7842ZM19.5228 36H14V34.6307C14 33.1182 15.2718 31.8921 16.7842 31.8921C18.2967 31.8921 19.5228 33.1182 19.5228 34.6307M19.5228 36V34.6307M19.5228 36H25M19.5228 34.6307C19.5228 33.1182 20.7489 31.8921 22.2614 31.8921C23.7739 31.8921 25 33.1182 25 34.6307M25 36V34.6307M25 36H30.4772M25 34.6307C25 33.1182 26.2261 31.8921 27.7386 31.8921C29.2511 31.8921 30.4772 33.1182 30.4772 34.6307M30.4772 36V34.6307M30.4772 36H36V34.6307C36 33.1182 34.7282 31.8921 33.2158 31.8921C31.7033 31.8921 30.4772 33.1182 30.4772 34.6307M23.6307 22.2614V19.4772C23.6307 18.721 24.2438 18.1079 25 18.1079M18.1535 29.1535C18.1535 29.9097 17.5405 30.5228 16.7842 30.5228C16.028 30.5228 15.4149 29.9097 15.4149 29.1535C15.4149 28.3973 16.028 27.7842 16.7842 27.7842C17.5405 27.7842 18.1535 28.3973 18.1535 29.1535ZM29.1079 29.1535C29.1079 29.9097 28.4948 30.5228 27.7386 30.5228C26.9824 30.5228 26.3693 29.9097 26.3693 29.1535C26.3693 28.3973 26.9824 27.7842 27.7386 27.7842C28.4948 27.7842 29.1079 28.3973 29.1079 29.1535ZM31.8465 15.3693C31.8465 16.1255 31.2334 16.7386 30.4772 16.7386C29.721 16.7386 29.1079 16.1255 29.1079 15.3693C29.1079 14.6131 29.721 14 30.4772 14C31.2334 14 31.8465 14.6131 31.8465 15.3693Z" stroke="#06B6D4" stroke-width="1.5" stroke-linecap="round" stroke-linejoin="round"/>
</svg>
