<svg width="55" height="55" viewBox="0 0 55 55" fill="none" xmlns="http://www.w3.org/2000/svg">
<path d="M0 14C0 6.26801 6.26801 0 14 0H41C48.732 0 55 6.26801 55 14V41C55 48.732 48.732 55 41 55H14C6.26801 55 0 48.732 0 41V14Z" fill="#10B981" fill-opacity="0.07"/>
<path d="M20.6079 16.4999H27.9108V19.2385H20.6079V16.4999Z" stroke="#10B981" stroke-width="1.5" stroke-linecap="round" stroke-linejoin="round"/>
<path d="M19.2386 22.0228H21.9772V24.7613H19.2386V22.0228ZM19.2386 27.4999H21.9772V30.2385H19.2386V27.4999Z" stroke="#10B981" stroke-width="1.5" stroke-linecap="round" stroke-linejoin="round"/>
<path d="M24.7158 22.0227H26.9979" stroke="#10B981" stroke-width="1.5" stroke-linecap="round" stroke-linejoin="round"/>
<path d="M19.2386 32.9771H21.9772V35.7157H19.2386V32.9771Z" stroke="#10B981" stroke-width="1.5" stroke-linecap="round" stroke-linejoin="round"/>
<path d="M29.2801 35.7157H24.7158" stroke="#10B981" stroke-width="1.5" stroke-linecap="round" stroke-linejoin="round"/>
<path d="M24.7158 32.9771H26.9979" stroke="#10B981" stroke-width="1.5" stroke-linecap="round" stroke-linejoin="round"/>
<path d="M31.7979 31.204L36.1625 35.5686C36.6972 36.1033 37.5642 36.1033 38.0989 35.5686C38.6337 35.0338 38.6337 34.1668 38.0989 33.6321L33.7344 29.2676" stroke="#10B981" stroke-width="1.5" stroke-linecap="round" stroke-linejoin="round"/>
<path d="M28.5124 27.7835L29.4806 28.7517L31.4171 26.8153" stroke="#10B981" stroke-width="1.5" stroke-linecap="round" stroke-linejoin="round"/>
<path d="M32.0187 23.9048V17.8692H27.9108" stroke="#10B981" stroke-width="1.5" stroke-linecap="round" stroke-linejoin="round"/>
<path d="M20.6079 17.8693H16.5V38.5H32.0187V31.0951" stroke="#10B981" stroke-width="1.5" stroke-linecap="round" stroke-linejoin="round"/>
<path d="M25.9224 27.4999C25.9224 25.2312 27.7615 23.392 30.0303 23.392C32.299 23.392 34.1382 25.2312 34.1382 27.4999C34.1382 29.7686 32.299 31.6078 30.0303 31.6078C27.7615 31.6078 25.9224 29.7686 25.9224 27.4999Z" stroke="#10B981" stroke-width="1.5" stroke-linecap="round" stroke-linejoin="round"/>
<path d="M24.7158 30.2385H26.9688" stroke="#10B981" stroke-width="1.5" stroke-linecap="round" stroke-linejoin="round"/>
<path d="M25.9224 27.5H24.7157" stroke="#10B981" stroke-width="1.5" stroke-linecap="round" stroke-linejoin="round"/>
<path d="M26.9687 24.7614H24.7157" stroke="#10B981" stroke-width="1.5" stroke-linecap="round" stroke-linejoin="round"/>
</svg>
