<svg width="55" height="55" viewBox="0 0 55 55" fill="none" xmlns="http://www.w3.org/2000/svg">
<path d="M0 14C0 6.26801 6.26801 0 14 0H41C48.732 0 55 6.26801 55 14V41C55 48.732 48.732 55 41 55H14C6.26801 55 0 48.732 0 41V14Z" fill="#FF7B00" fill-opacity="0.07"/>
<path d="M35.5 30.4235V35.5476C35.5 37.1782 31.9193 38.5 27.5023 38.5C23.0852 38.5 19.5045 37.1781 19.5045 35.5476L19.5045 30.4235M35.5 25.0645V30.1886C35.5 31.8192 31.9193 33.1411 27.5023 33.1411C23.0852 33.1411 19.5045 31.8192 19.5045 30.1886L19.5045 25.0645M35.5 19.6831V24.8072C35.5 26.4378 31.9193 27.7596 27.5023 27.7596C23.0852 27.7596 19.5045 26.4378 19.5045 24.8072L19.5045 19.6831M35.4955 19.4525C35.4955 21.0831 31.9148 22.4049 27.4977 22.4049C23.0807 22.4049 19.5 21.0831 19.5 19.4525C19.5 17.8219 23.0807 16.5 27.4977 16.5C31.9148 16.5 35.4955 17.8219 35.4955 19.4525Z" stroke="#FF7B00" stroke-width="1.5" stroke-linecap="round" stroke-linejoin="round"/>
</svg>
