<svg width="119" height="40" viewBox="0 0 119 40" fill="none" xmlns="http://www.w3.org/2000/svg">
<path d="M41.1136 30.5558L42.604 31.5717L41.6964 28.7302L41.1136 30.5558ZM42.7742 26.7963L45.2857 34.1863H43.4394L40.5773 32.2318L39.9584 34.1863H38.1071L40.6237 26.7963H42.7742Z" fill="#111111"/>
<path d="M54.4316 26.7808V34.1657H53.1629L50.3163 30.1587V34.1657H48.6248V26.7808H49.8934L52.7401 30.7878V26.7808H54.4316Z" fill="#111111"/>
<path d="M60.773 30.5558L62.2634 31.5717L61.3557 28.7302L60.773 30.5558ZM62.4335 26.7963L64.945 34.1863H63.0988L60.2366 32.2318L59.6178 34.1863H57.7664L60.2831 26.7963H62.4335Z" fill="#111111"/>
<path d="M72.6035 32.5412V34.1657H68.2768V26.7808H69.9631V32.5412H72.6035Z" fill="#111111"/>
<path d="M80.1121 31.3293V34.1657H78.4206V31.3293L75.9401 26.7808H77.8636L79.2663 29.6275L80.6691 26.7808H82.5926L80.1121 31.3293Z" fill="#111111"/>
<path d="M89.5201 28.4053V34.1657H87.8286V28.4053H85.9308V26.7808H91.4179V28.4053H89.5201Z" fill="#111111"/>
<path d="M96.4368 26.7963V34.1863H94.7504V26.7963H96.4368Z" fill="#111111"/>
<path d="M106.316 34.1863H103.361C102.345 34.1863 101.489 33.8305 100.803 33.124C100.117 32.4123 99.7714 31.5356 99.7714 30.4887C99.7714 29.4419 100.117 28.5652 100.803 27.8586C101.489 27.1521 102.345 26.7963 103.361 26.7963H106.316V28.4208H103.361C102.051 28.5342 101.396 29.2253 101.396 30.4887C101.545 31.8657 102.2 32.5567 103.361 32.5567H106.316V34.1863Z" fill="#111111"/>
<path d="M112.659 30.5558L114.149 31.5717L113.242 28.7302L112.659 30.5558ZM114.319 26.7963L116.831 34.1863H114.985L112.123 32.2318L111.504 34.1863H109.652L112.169 26.7963H114.319Z" fill="#111111"/>
<path d="M109.727 21.1229V9.21883H104.943V6.07417H118.082V9.21883H113.318V21.1229H109.727Z" fill="#111111"/>
<path d="M97.2942 16.3384H101.248L99.2972 11.6266L97.2942 16.3384ZM91.6691 21.1229L99.3387 5.60715H99.567L107.071 21.1229H103.314L102.359 18.933H96.2563L95.2807 21.1229H91.6691Z" fill="#111111"/>
<path d="M84.5495 8.81408H83.9579V12.9862H84.7155C85.6219 12.9862 86.3138 12.8028 86.7912 12.4361C87.2686 12.0694 87.5073 11.5436 87.5073 10.8586C87.5073 10.1391 87.2755 9.62013 86.812 9.30186C86.3484 8.97667 85.5942 8.81408 84.5495 8.81408ZM80.4708 21.1229V6.07417H84.3419C85.5804 6.07417 86.5387 6.1572 87.2167 6.32326C87.9017 6.48239 88.5071 6.75223 89.0329 7.13277C89.5934 7.53407 90.0258 8.03224 90.3303 8.62726C90.6416 9.21537 90.7973 9.83808 90.7973 10.4954C90.7973 11.4433 90.5551 12.2735 90.0708 12.9862C89.5934 13.6988 88.9015 14.2558 87.9951 14.6571L92.5824 21.1229H88.4829L84.4664 15.2176H83.9579V21.1229H80.4708Z" fill="#111111"/>
<path d="M69.563 16.3384H73.5172L71.5661 11.6266L69.563 16.3384ZM63.9379 21.1229L71.6076 5.60715H71.8359L79.3395 21.1229H75.5825L74.6277 18.933H68.5252L67.5496 21.1229H63.9379Z" fill="#111111"/>
<path d="M49.9374 21.1229V6.07417H53.4869V11.5955H59.2884V6.07417H62.817V21.1229H59.2884V14.8128H53.4869V21.1229H49.9374Z" fill="#111111"/>
<path d="M40.1714 18.4037H41.6658C42.3854 18.4037 42.9493 18.2273 43.3575 17.8744C43.7727 17.5216 43.9802 17.0372 43.9802 16.4215C43.9802 15.8195 43.7796 15.3559 43.3783 15.0307C42.977 14.6986 42.4062 14.5326 41.6658 14.5326H40.1714V18.4037ZM40.1714 12.021H41.3649C42.0706 12.021 42.6207 11.8688 43.015 11.5644C43.4163 11.253 43.617 10.8171 43.617 10.2567C43.617 9.69624 43.4267 9.28456 43.0462 9.02164C42.6726 8.75872 42.0844 8.62726 41.2818 8.62726H40.1714V12.021ZM36.9022 21.1229V6.07417H41.5517C43.3022 6.07417 44.6237 6.39591 45.5162 7.03937C46.4157 7.67591 46.8654 8.6238 46.8654 9.88305C46.8654 10.6511 46.6613 11.3049 46.2531 11.8446C45.8449 12.3773 45.2291 12.7925 44.4058 13.09C45.3191 13.2975 46.0352 13.7265 46.5541 14.3769C47.073 15.0204 47.3325 15.8091 47.3325 16.7432C47.3325 18.1892 46.7962 19.2824 45.7238 20.0228C44.6583 20.7562 43.0773 21.1229 40.9809 21.1229H36.9022Z" fill="#111111"/>
<path fill-rule="evenodd" clip-rule="evenodd" d="M34.3742 30.0084C30.9123 30.5134 27.4869 31.1063 24.0102 31.6333C12.6435 33.3533 14.2537 33.9754 13.8439 19.1247C13.3315 3.38111 15.9152 7.31884 33.8912 9.12669C33.13 7.20173 32.3688 7.1871 30.0486 6.87237C7.82014 3.88613 10.9601 1.65377 10.9967 25.5656C11.026 44.4199 11.9994 40.8848 28.5335 36.5957C33.474 35.2782 34.0302 35.1392 34.3742 30.0084Z" fill="#FF6600"/>
<path fill-rule="evenodd" clip-rule="evenodd" d="M8.42759 29.196C8.46419 23.7212 7.30044 8.85588 8.55202 4.80835C11.1064 0.160653 26.2645 3.78366 29.7924 4.47167C25.9937 2.41497 5.9903 -2.98661 3.47249 2.1588C2.0306 5.10112 4.48254 12.7936 5.25837 15.9921C6.3709 20.5739 7.32971 24.6727 8.42027 29.2033" fill="#111111"/>
<path fill-rule="evenodd" clip-rule="evenodd" d="M8.14216 34.7366L2.96015 13.4304C-2.53657 15.1431 0.983967 20.3178 2.70398 23.9115C4.46791 27.6004 6.15865 31.5528 8.14216 34.7366Z" fill="#FF6600"/>
<path fill-rule="evenodd" clip-rule="evenodd" d="M27.7869 28.6251L30.5316 28.4128L30.7439 14.9821L27.8235 14.9235L27.7869 28.6251Z" fill="#111111"/>
<path fill-rule="evenodd" clip-rule="evenodd" d="M23.0221 29.196L25.7888 29.0715L26.0083 20.4641L23.0367 20.691L23.0221 29.196Z" fill="#111111"/>
<path fill-rule="evenodd" clip-rule="evenodd" d="M18.3598 24.7825L18.3012 29.9864L21.2143 29.6424L21.2582 24.5922L18.3598 24.7825Z" fill="#111111"/>
<path fill-rule="evenodd" clip-rule="evenodd" d="M23.8784 33.0312C24.5372 33.0312 25.0788 33.69 25.0788 34.5097C25.0788 35.3295 24.5445 35.9882 23.8784 35.9882C23.2124 35.9882 22.6781 35.3295 22.6781 34.5097C22.6781 33.69 23.2124 33.0312 23.8784 33.0312Z" fill="white"/>
<path fill-rule="evenodd" clip-rule="evenodd" d="M16.3763 12.3837L19.1941 14.7844C19.1502 14.8576 17.906 16.3434 17.7303 16.5411L17.6864 16.585C17.6644 16.5191 17.5473 16.3508 17.5034 16.2702C17.3863 16.036 17.2912 15.7872 17.2399 15.5237C17.1594 15.0992 17.1521 14.6307 17.2399 14.2062C17.2472 14.1623 17.2619 14.1257 17.2619 14.0891C17.2106 14.0891 17.1228 14.0745 17.0716 14.0672L16.508 13.9866C16.2591 13.9501 16.003 13.9135 15.7541 13.8842C15.7541 13.9574 15.6736 14.316 15.6663 14.4697C15.5931 15.4432 15.7175 16.2117 16.1274 17.0607C16.3616 17.5365 16.5958 17.7926 16.9252 18.1586C17.0057 18.2537 17.1009 18.3269 17.196 18.4075C17.379 18.5612 17.5766 18.7075 17.7889 18.8246L20.3213 15.7725C20.3872 15.8091 21.9096 17.0973 21.9828 17.1998C21.9462 17.2144 21.8583 17.2803 21.8217 17.3096C21.7705 17.3462 21.712 17.3828 21.6534 17.412C21.1045 17.7268 20.3872 17.9097 19.7577 17.8292C19.6992 17.8219 19.6113 17.8 19.5528 17.8073C19.5162 17.8951 19.4942 18.0854 19.4796 18.1879L19.3332 18.971C19.3186 19.0442 19.3113 19.0881 19.2966 19.1613C19.282 19.2199 19.26 19.3077 19.2673 19.3663C19.3625 19.3589 19.8602 19.4541 20.3359 19.4029C20.6873 19.3589 20.98 19.3224 21.324 19.2199C21.4265 19.1906 21.507 19.1613 21.6095 19.1247C21.7925 19.0662 21.9608 18.9857 22.1218 18.8978C22.5829 18.649 23.0221 18.3562 23.3954 17.9683L23.8931 17.3828C23.9224 17.3462 23.937 17.3242 23.9663 17.2803C24.0102 17.2144 24.1639 17.0168 24.1712 16.9436L21.3826 14.5649C21.4119 14.5136 21.4558 14.4697 21.4924 14.4185V14.4038L21.5583 14.3306C21.712 14.1477 21.8657 13.972 22.0047 13.7817C22.034 13.7378 22.0706 13.7085 22.0999 13.6646C22.2097 13.5329 22.3707 13.3718 22.4585 13.2254C22.5098 13.1449 22.5756 13.0791 22.6342 13.0059C22.6781 12.9546 22.7732 12.8156 22.8318 12.7863C22.883 12.94 23.2856 13.3645 23.3368 14.3233C23.3441 14.4844 23.3368 14.6381 23.3295 14.7771C23.3149 14.9308 23.2929 15.0553 23.2636 15.2016C23.3588 15.2382 23.5271 15.2456 23.6369 15.2602C23.7613 15.2748 23.8931 15.2968 24.0102 15.3187C24.1566 15.348 24.647 15.3993 24.7641 15.4432C24.7933 15.2675 24.8299 15.0992 24.8519 14.9089C24.8739 14.7186 24.8812 14.5209 24.8739 14.3306L24.8519 13.972C24.8007 13.3792 24.6396 12.8083 24.3762 12.3032C24.2737 12.1129 24.1712 11.9299 24.0468 11.7689C23.8126 11.4615 23.8126 11.4835 23.5784 11.22C23.4759 11.1102 23.3441 11.0004 23.227 10.9053L22.9269 10.693C22.8904 10.671 22.8684 10.6564 22.8245 10.6344C22.7879 10.6125 22.7513 10.5905 22.7147 10.5686L20.2042 13.5914C20.1383 13.5548 19.8529 13.306 19.787 13.2401C19.6626 13.1157 19.5089 12.9986 19.3771 12.8888C19.3405 12.8522 19.3259 12.8302 19.282 12.7936C19.1722 12.7058 18.6086 12.2227 18.5647 12.1642C18.6672 12.1276 19.0112 11.8202 19.626 11.6591C20.0285 11.5567 20.4823 11.5128 20.8776 11.5859C20.9142 11.5859 20.9434 11.6006 20.9874 11.6006C21.0313 11.3444 21.0898 11.0882 21.1264 10.8247L21.2289 10.2538C21.2435 10.188 21.2655 10.1148 21.2582 10.0489C21.2143 10.0489 21.1777 10.0416 21.1337 10.0343C20.7824 9.99036 20.4238 9.98304 20.0651 10.0196L19.9334 10.0343C19.3186 10.1148 18.7184 10.3124 18.1914 10.6198C18.0304 10.7076 17.8913 10.8028 17.7449 10.9053C17.6791 10.9492 17.6059 11.0077 17.54 11.059C17.3424 11.22 17.1375 11.381 16.9764 11.5786L16.7349 11.8568C16.669 11.9299 16.3909 12.3032 16.3763 12.3837Z" fill="#111111"/>
</svg>
